<svg version="1.1" id="Layer_1" xmlns="http://www.w3.org/2000/svg" xmlns:xlink="http://www.w3.org/1999/xlink" x="0px" y="0px"
	 width="100%" viewBox="0 0 600 419" enable-background="new 0 0 600 419" xml:space="preserve">
<!--<path fill="#FFFFFF" opacity="0.000000" stroke="none"-->
<!--	d="-->
<!--M328.000000,420.000000 -->
<!--	C218.666687,420.000000 109.833382,420.000000 1.000058,420.000000 -->
<!--	C1.000039,280.333405 1.000039,140.666779 1.000019,1.000133 -->
<!--	C200.999893,1.000089 400.999786,1.000089 600.999756,1.000044 -->
<!--	C600.999878,140.666519 600.999878,280.333038 600.999939,419.999786 -->
<!--	C510.166656,420.000000 419.333344,420.000000 328.000000,420.000000 -->
<!--M461.421906,270.999176 -->
<!--	C479.238892,272.595795 497.005737,275.036591 514.969482,274.154999 -->
<!--	C518.903870,273.961914 523.134460,274.431030 525.147034,269.165558 -->
<!--	C520.578308,268.180481 516.257385,267.248840 511.936462,266.317169 -->
<!--	C511.998962,265.961853 512.061462,265.606537 512.124023,265.251221 -->
<!--	C516.636353,265.658813 521.148743,266.066406 525.661072,266.473999 -->
<!--	C525.691040,266.121033 525.721008,265.768097 525.750977,265.415161 -->
<!--	C524.207581,264.774963 522.664185,264.134766 521.120789,263.494568 -->
<!--	C521.206787,263.212494 521.292725,262.930450 521.378723,262.648376 -->
<!--	C525.717773,263.269623 530.056824,263.890839 534.523987,264.530396 -->
<!--	C534.740051,263.256042 534.902161,262.300110 535.015869,261.629333 -->
<!--	C531.796448,260.630432 528.734619,259.680420 525.672729,258.730408 -->
<!--	C525.793823,258.253174 525.914917,257.775940 526.036011,257.298676 -->
<!--	C528.247559,256.913300 530.691162,255.730164 532.626831,256.293243 -->
<!--	C538.258667,257.931580 541.406677,255.364746 544.136719,251.019730 -->
<!--	C542.973633,250.056885 541.998596,249.249771 541.143921,248.542267 -->
<!--	C544.121826,247.285797 546.848328,246.135391 549.574890,244.985001 -->
<!--	C549.426697,244.523010 549.278503,244.061020 549.130310,243.599030 -->
<!--	C546.207153,242.646805 543.284058,241.694580 539.598450,240.493958 -->
<!--	C546.447083,237.405579 553.886169,240.669373 560.074890,235.346710 -->
<!--	C555.824097,232.844925 552.301086,230.771469 549.395569,229.061401 -->
<!--	C554.794983,227.338730 561.746033,231.810486 568.789612,227.429779 -->
<!--	C564.052063,226.070663 560.145630,224.949997 555.017944,223.478973 -->
<!--	C558.666626,222.135254 561.054565,221.255844 563.027466,220.529297 -->
<!--	C563.145081,214.160751 568.547058,218.812500 569.433960,216.284912 -->
<!--	C570.078918,214.489670 570.723938,212.694427 571.422668,210.749466 -->
<!--	C565.089417,209.824158 558.112427,208.804794 551.135376,207.785416 -->
<!--	C551.195251,207.228058 551.255188,206.670685 551.315063,206.113312 -->
<!--	C557.089111,206.415848 562.863159,206.718384 568.637207,207.020920 -->
<!--	C566.869324,205.886398 564.954346,205.660553 563.140015,205.105637 -->
<!--	C561.230408,204.521591 559.417114,203.622864 556.789429,202.544815 -->
<!--	C560.916260,201.973373 563.933228,201.555618 566.950195,201.137863 -->
<!--	C566.910706,200.882156 566.871277,200.626450 566.831848,200.370743 -->
<!--	C563.733459,199.834610 560.635071,199.298477 557.224243,198.708282 -->
<!--	C558.423706,197.887009 559.230530,197.334549 560.660950,196.355148 -->
<!--	C558.349487,196.074661 556.879211,195.896240 555.408936,195.717834 -->
<!--	C555.406006,195.507507 555.403137,195.297195 555.400269,195.086884 -->
<!--	C557.105408,194.575073 558.810547,194.063263 560.710205,193.493073 -->
<!--	C558.732788,192.927017 556.912720,192.406006 555.092651,191.884995 -->
<!--	C555.089783,191.639801 555.086853,191.394608 555.083984,191.149414 -->
<!--	C559.169250,190.709793 563.254578,190.270172 567.655212,189.796616 -->
<!--	C562.437195,186.714066 555.349670,188.327942 551.221619,181.984406 -->
<!--	C539.021057,180.122131 525.886108,178.117233 512.940247,176.141205 -->
<!--	C513.638672,175.704330 514.637573,175.079514 516.426392,173.960587 -->
<!--	C503.845245,172.704376 492.239166,171.545532 480.633118,170.386688 -->
<!--	C480.597412,169.981705 480.561737,169.576721 480.526062,169.171722 -->
<!--	C491.513367,168.395386 502.603760,169.368683 513.610657,168.539764 -->
<!--	C471.306763,164.979630 429.002869,161.419495 386.698975,157.859360 -->
<!--	C411.114410,154.749268 435.463226,161.493896 459.858368,157.270126 -->
<!--	C458.077667,157.073776 456.296936,156.877411 454.516205,156.681061 -->
<!--	C461.239502,156.043289 467.860046,156.564346 474.489990,156.751053 -->
<!--	C481.140839,156.938339 487.801056,156.792221 494.457184,156.792221 -->
<!--	C401.259583,148.355637 308.032867,142.112442 214.436081,152.013702 -->
<!--	C216.942581,148.442062 215.401154,146.956299 211.827194,146.885834 -->
<!--	C209.696671,146.843842 207.542145,147.236176 205.421860,147.578491 -->
<!--	C187.308594,150.502869 169.259415,153.910690 151.074875,156.283401 -->
<!--	C132.349319,158.726685 113.477608,160.029144 94.702293,162.121826 -->
<!--	C87.173637,162.960968 79.731537,164.576691 72.250046,165.838943 -->
<!--	C72.319809,166.396271 72.389572,166.953583 72.459335,167.510895 -->
<!--	C82.044579,166.587112 91.629822,165.663345 101.215065,164.739563 -->
<!--	C101.233276,165.042755 101.251495,165.345947 101.269707,165.649139 -->
<!--	C99.806625,166.001450 98.343536,166.353775 96.880447,166.706100 -->
<!--	C96.954086,167.193192 97.027733,167.680298 97.101372,168.167389 -->
<!--	C100.853226,168.167389 104.605080,168.167389 109.599487,168.167389 -->
<!--	C104.139603,170.631119 99.976959,172.509476 95.814323,174.387848 -->
<!--	C95.679787,174.767761 95.545250,175.147690 95.410706,175.527618 -->
<!--	C98.485535,175.965744 101.560356,176.403870 104.635185,176.841995 -->
<!--	C104.694733,177.171234 104.754288,177.500458 104.813835,177.829697 -->
<!--	C97.521057,180.484634 90.228287,183.139557 82.935516,185.794495 -->
<!--	C82.988251,186.367249 83.040985,186.940002 83.093719,187.512756 -->
<!--	C94.203598,188.897110 105.397278,183.685089 117.750313,186.861954 -->
<!--	C113.384308,186.861954 110.270760,186.861954 107.266510,186.861954 -->
<!--	C105.666992,191.686661 105.667702,191.696426 100.790024,192.051666 -->
<!--	C94.008530,192.545609 87.225838,193.023148 80.443649,193.507690 -->
<!--	C80.441856,193.992447 80.440063,194.477203 80.438271,194.961945 -->
<!--	C85.732010,195.988693 91.025742,197.015427 96.335297,198.045242 -->
<!--	C96.192207,198.303513 95.910767,199.629837 95.280067,199.824493 -->
<!--	C88.212296,202.005783 81.189148,204.507446 73.959579,205.945602 -->
<!--	C64.208527,207.885330 55.700359,211.908737 47.084316,218.828766 -->
<!--	C52.615101,218.828766 56.970928,218.828766 60.275703,218.828766 -->
<!--	C60.719204,220.752014 60.951172,221.757919 61.119541,222.488068 -->
<!--	C51.353436,228.990234 39.930767,231.214447 26.993570,232.400070 -->
<!--	C30.984194,234.872589 33.566372,236.472473 36.580833,238.340179 -->
<!--	C41.702785,238.905182 47.857170,239.584061 54.011559,240.262955 -->
<!--	C53.991543,240.758163 53.971527,241.253357 53.951511,241.748566 -->
<!--	C52.759861,242.548706 51.568207,243.348846 49.158764,244.966675 -->
<!--	C50.651367,245.435532 51.708866,245.767700 52.766369,246.099884 -->
<!--	C52.550430,246.311249 52.334492,246.522598 52.118553,246.733948 -->
<!--	C47.632713,247.228317 43.146877,247.722687 38.515064,248.233154 -->
<!--	C41.864384,256.221069 48.802288,250.946884 53.356297,253.309738 -->
<!--	C50.857872,260.270599 43.072220,257.426819 37.801304,261.087372 -->
<!--	C40.644436,261.465271 42.747787,261.744812 44.969414,262.040070 -->
<!--	C44.737740,263.387146 44.521629,264.643707 44.311234,265.867035 -->
<!--	C40.235935,266.762085 36.301567,267.626129 32.367199,268.490204 -->
<!--	C32.465385,268.998138 32.563572,269.506073 32.661758,270.013977 -->
<!--	C46.603970,269.654541 60.599422,266.647278 74.935173,270.544861 -->
<!--	C73.514862,271.282898 72.459007,271.831512 71.193039,272.489319 -->
<!--	C73.155006,273.028259 74.692131,273.730652 76.267448,273.830475 -->
<!--	C80.926285,274.125763 85.615509,274.480072 90.263443,274.240570 -->
<!--	C94.076576,274.044037 97.828636,272.867432 101.642494,272.423767 -->
<!--	C105.679504,271.954132 109.850082,272.290222 113.800690,271.483185 -->
<!--	C126.681831,268.851715 139.366684,264.620361 152.357620,263.335541 -->
<!--	C166.890427,261.898193 181.674942,263.005585 197.363800,263.005585 -->
<!--	C186.633102,266.788544 176.886932,270.224426 166.935760,273.732605 -->
<!--	C167.804581,274.884521 168.657150,275.496918 168.728409,276.189697 -->
<!--	C169.420654,282.919586 170.121063,283.490082 176.370529,282.566711 -->
<!--	C187.781906,280.880707 199.356491,279.951752 210.580368,277.442749 -->
<!--	C221.671799,274.963318 233.210510,278.405243 244.225372,273.338623 -->
<!--	C249.001419,271.141754 255.560623,272.970886 261.295166,272.680389 -->
<!--	C278.640961,271.801788 295.981079,270.805481 313.317780,269.761841 -->
<!--	C314.530151,269.688873 315.704407,268.872192 316.882690,268.369293 -->
<!--	C318.697540,267.594666 320.462494,266.234650 322.315765,266.108429 -->
<!--	C327.459839,265.758026 332.640198,265.810486 337.803223,265.892120 -->
<!--	C357.472809,266.202972 377.086914,266.031067 396.776276,268.181000 -->
<!--	C417.870728,270.484344 439.253021,270.151947 461.421906,270.999176 -->
<!--M388.151154,142.061630 -->
<!--	C389.014496,141.994232 389.877808,141.926849 391.401611,141.807907 -->
<!--	C382.530884,137.725296 303.377777,136.164993 298.617371,140.314590 -->
<!--	C328.635315,140.909637 357.944672,141.490646 388.151154,142.061630 -->
<!--M248.121445,144.374176 -->
<!--	C257.692383,144.374176 267.263336,144.374176 276.834259,144.374176 -->
<!--	C276.889709,144.071106 276.945160,143.768021 277.000610,143.464951 -->
<!--	C276.190063,143.129639 275.379547,142.794312 274.790100,142.550446 -->
<!--	C275.362610,141.886353 275.762177,141.422852 276.304504,140.793793 -->
<!--	C265.946228,138.182571 225.404755,142.904800 221.827423,147.356293 -->
<!--	C230.547165,146.384933 238.878616,145.456848 248.121445,144.374176 -->
<!--z"/>-->
<path fill="#010101" opacity="1.000000" stroke="none"
	d="
M460.965790,270.984528
	C439.253021,270.151947 417.870728,270.484344 396.776276,268.181000
	C377.086914,266.031067 357.472809,266.202972 337.803223,265.892120
	C332.640198,265.810486 327.459839,265.758026 322.315765,266.108429
	C320.462494,266.234650 318.697540,267.594666 316.882690,268.369293
	C315.704407,268.872192 314.530151,269.688873 313.317780,269.761841
	C295.981079,270.805481 278.640961,271.801788 261.295166,272.680389
	C255.560623,272.970886 249.001419,271.141754 244.225372,273.338623
	C233.210510,278.405243 221.671799,274.963318 210.580368,277.442749
	C199.356491,279.951752 187.781906,280.880707 176.370529,282.566711
	C170.121063,283.490082 169.420654,282.919586 168.728409,276.189697
	C168.657150,275.496918 167.804581,274.884521 166.935760,273.732605
	C176.886932,270.224426 186.633102,266.788544 197.363800,263.005585
	C181.674942,263.005585 166.890427,261.898193 152.357620,263.335541
	C139.366684,264.620361 126.681831,268.851715 113.800690,271.483185
	C109.850082,272.290222 105.679504,271.954132 101.642494,272.423767
	C97.828636,272.867432 94.076576,274.044037 90.263443,274.240570
	C85.615509,274.480072 80.926285,274.125763 76.267448,273.830475
	C74.692131,273.730652 73.155006,273.028259 71.193039,272.489319
	C72.459007,271.831512 73.514862,271.282898 74.935173,270.544861
	C60.599422,266.647278 46.603970,269.654541 32.661758,270.013977
	C32.563572,269.506073 32.465385,268.998138 32.367199,268.490204
	C36.301567,267.626129 40.235935,266.762085 44.311234,265.867035
	C44.521629,264.643707 44.737740,263.387146 44.969414,262.040070
	C42.747787,261.744812 40.644436,261.465271 37.801304,261.087372
	C43.072220,257.426819 50.857872,260.270599 53.356297,253.309738
	C48.802288,250.946884 41.864384,256.221069 38.515064,248.233154
	C43.146877,247.722687 47.632713,247.228317 52.118553,246.733948
	C52.334492,246.522598 52.550430,246.311249 52.766369,246.099884
	C51.708866,245.767700 50.651367,245.435532 49.158764,244.966675
	C51.568207,243.348846 52.759861,242.548706 53.951511,241.748566
	C53.971527,241.253357 53.991543,240.758163 54.011559,240.262955
	C47.857170,239.584061 41.702785,238.905182 36.580833,238.340179
	C33.566372,236.472473 30.984194,234.872589 26.993570,232.400070
	C39.930767,231.214447 51.353436,228.990234 61.119541,222.488068
	C60.951172,221.757919 60.719204,220.752014 60.275703,218.828766
	C56.970928,218.828766 52.615101,218.828766 47.084316,218.828766
	C55.700359,211.908737 64.208527,207.885330 73.959579,205.945602
	C81.189148,204.507446 88.212296,202.005783 95.280067,199.824493
	C95.910767,199.629837 96.192207,198.303513 96.335297,198.045242
	C91.025742,197.015427 85.732010,195.988693 80.438271,194.961945
	C80.440063,194.477203 80.441856,193.992447 80.443649,193.507690
	C87.225838,193.023148 94.008530,192.545609 100.790024,192.051666
	C105.667702,191.696426 105.666992,191.686661 107.266510,186.861954
	C110.270760,186.861954 113.384308,186.861954 117.750313,186.861954
	C105.397278,183.685089 94.203598,188.897110 83.093719,187.512756
	C83.040985,186.940002 82.988251,186.367249 82.935516,185.794495
	C90.228287,183.139557 97.521057,180.484634 104.813835,177.829697
	C104.754288,177.500458 104.694733,177.171234 104.635185,176.841995
	C101.560356,176.403870 98.485535,175.965744 95.410706,175.527618
	C95.545250,175.147690 95.679787,174.767761 95.814323,174.387848
	C99.976959,172.509476 104.139603,170.631119 109.599487,168.167389
	C104.605080,168.167389 100.853226,168.167389 97.101372,168.167389
	C97.027733,167.680298 96.954086,167.193192 96.880447,166.706100
	C98.343536,166.353775 99.806625,166.001450 101.269707,165.649139
	C101.251495,165.345947 101.233276,165.042755 101.215065,164.739563
	C91.629822,165.663345 82.044579,166.587112 72.459335,167.510895
	C72.389572,166.953583 72.319809,166.396271 72.250046,165.838943
	C79.731537,164.576691 87.173637,162.960968 94.702293,162.121826
	C113.477608,160.029144 132.349319,158.726685 151.074875,156.283401
	C169.259415,153.910690 187.308594,150.502869 205.421860,147.578491
	C207.542145,147.236176 209.696671,146.843842 211.827194,146.885834
	C215.401154,146.956299 216.942581,148.442062 214.436081,152.013702
	C308.032867,142.112442 401.259583,148.355637 494.457184,156.792221
	C487.801056,156.792221 481.140839,156.938339 474.489990,156.751053
	C467.860046,156.564346 461.239502,156.043289 454.516205,156.681061
	C456.296936,156.877411 458.077667,157.073776 459.858368,157.270126
	C435.463226,161.493896 411.114410,154.749268 386.698975,157.859360
	C429.002869,161.419495 471.306763,164.979630 513.610657,168.539764
	C502.603760,169.368683 491.513367,168.395386 480.526062,169.171722
	C480.561737,169.576721 480.597412,169.981705 480.633118,170.386688
	C492.239166,171.545532 503.845245,172.704376 516.426392,173.960587
	C514.637573,175.079514 513.638672,175.704330 512.940247,176.141205
	C525.886108,178.117233 539.021057,180.122131 551.221619,181.984406
	C555.349670,188.327942 562.437195,186.714066 567.655212,189.796616
	C563.254578,190.270172 559.169250,190.709793 555.083984,191.149414
	C555.086853,191.394608 555.089783,191.639801 555.092651,191.884995
	C556.912720,192.406006 558.732788,192.927017 560.710205,193.493073
	C558.810547,194.063263 557.105408,194.575073 555.400269,195.086884
	C555.403137,195.297195 555.406006,195.507507 555.408936,195.717834
	C556.879211,195.896240 558.349487,196.074661 560.660950,196.355148
	C559.230530,197.334549 558.423706,197.887009 557.224243,198.708282
	C560.635071,199.298477 563.733459,199.834610 566.831848,200.370743
	C566.871277,200.626450 566.910706,200.882156 566.950195,201.137863
	C563.933228,201.555618 560.916260,201.973373 556.789429,202.544815
	C559.417114,203.622864 561.230408,204.521591 563.140015,205.105637
	C564.954346,205.660553 566.869324,205.886398 568.637207,207.020920
	C562.863159,206.718384 557.089111,206.415848 551.315063,206.113312
	C551.255188,206.670685 551.195251,207.228058 551.135376,207.785416
	C558.112427,208.804794 565.089417,209.824158 571.422668,210.749466
	C570.723938,212.694427 570.078918,214.489670 569.433960,216.284912
	C568.547058,218.812500 563.145081,214.160751 563.027466,220.529297
	C561.054565,221.255844 558.666626,222.135254 555.017944,223.478973
	C560.145630,224.949997 564.052063,226.070663 568.789612,227.429779
	C561.746033,231.810486 554.794983,227.338730 549.395569,229.061401
	C552.301086,230.771469 555.824097,232.844925 560.074890,235.346710
	C553.886169,240.669373 546.447083,237.405579 539.598450,240.493958
	C543.284058,241.694580 546.207153,242.646805 549.130310,243.599030
	C549.278503,244.061020 549.426697,244.523010 549.574890,244.985001
	C546.848328,246.135391 544.121826,247.285797 541.143921,248.542267
	C541.998596,249.249771 542.973633,250.056885 544.136719,251.019730
	C541.406677,255.364746 538.258667,257.931580 532.626831,256.293243
	C530.691162,255.730164 528.247559,256.913300 526.036011,257.298676
	C525.914917,257.775940 525.793823,258.253174 525.672729,258.730408
	C528.734619,259.680420 531.796448,260.630432 535.015869,261.629333
	C534.902161,262.300110 534.740051,263.256042 534.523987,264.530396
	C530.056824,263.890839 525.717773,263.269623 521.378723,262.648376
	C521.292725,262.930450 521.206787,263.212494 521.120789,263.494568
	C522.664185,264.134766 524.207581,264.774963 525.750977,265.415161
	C525.721008,265.768097 525.691040,266.121033 525.661072,266.473999
	C521.148743,266.066406 516.636353,265.658813 512.124023,265.251221
	C512.061462,265.606537 511.998962,265.961853 511.936462,266.317169
	C516.257385,267.248840 520.578308,268.180481 525.147034,269.165558
	C523.134460,274.431030 518.903870,273.961914 514.969482,274.154999
	C497.005737,275.036591 479.238892,272.595795 460.965790,270.984528
z"/>
<!--<path fill="#181818" opacity="1.000000" stroke="none" -->
<!--	d="-->
<!--M387.702576,142.066650 -->
<!--	C357.944672,141.490646 328.635315,140.909637 298.617371,140.314590 -->
<!--	C303.377777,136.164993 382.530884,137.725296 391.401611,141.807907 -->
<!--	C389.877808,141.926849 389.014496,141.994232 387.702576,142.066650 -->
<!--z"/>-->
<!--<path fill="#121212" opacity="1.000000" stroke="none" -->
<!--	d="-->
<!--M247.665756,144.451477 -->
<!--	C238.878616,145.456848 230.547165,146.384933 221.827423,147.356293 -->
<!--	C225.404755,142.904800 265.946228,138.182571 276.304504,140.793793 -->
<!--	C275.762177,141.422852 275.362610,141.886353 274.790100,142.550446 -->
<!--	C275.379547,142.794312 276.190063,143.129639 277.000610,143.464951 -->
<!--	C276.945160,143.768021 276.889709,144.071106 276.834259,144.374176 -->
<!--	C267.263336,144.374176 257.692383,144.374176 247.665756,144.451477 -->
<!--z"/>-->
</svg>